<mxfile host="Electron" modified="2023-11-26T17:04:01.142Z" agent="Mozilla/5.0 (Windows NT 10.0; Win64; x64) AppleWebKit/537.36 (KHTML, like Gecko) draw.io/22.1.2 Chrome/114.0.5735.289 Electron/25.9.4 Safari/537.36" etag="Ymq24Nx1u7xwNsziXglS" version="22.1.2" type="device">
  <diagram name="PÃ¡gina-1" id="YyNrxhe7Ww-Puu9_z93h">
    <mxGraphModel dx="1518" dy="731" grid="0" gridSize="10" guides="1" tooltips="1" connect="1" arrows="1" fold="1" page="1" pageScale="1" pageWidth="827" pageHeight="1169" math="0" shadow="0">
      <root>
        <mxCell id="0" />
        <mxCell id="1" parent="0" />
        <mxCell id="a0vF65a34ZP9SOjktLQK-1" value="&lt;p style=&quot;margin:0px;margin-top:4px;text-align:center;&quot;&gt;&lt;i&gt;&amp;lt;&amp;lt;Interface&amp;gt;&amp;gt;&lt;/i&gt;&lt;br&gt;&lt;b&gt;Handler&lt;/b&gt;&lt;br&gt;&lt;/p&gt;&lt;hr size=&quot;1&quot;&gt;&lt;p style=&quot;margin:0px;margin-left:4px;&quot;&gt;&amp;nbsp;&lt;/p&gt;&lt;hr size=&quot;1&quot;&gt;&lt;p style=&quot;margin:0px;margin-left:4px;&quot;&gt;+ setNextHandler(Handler nextHandler): void&lt;br&gt;+ handleRequest(int amount): void&lt;/p&gt;" style="verticalAlign=top;align=left;overflow=fill;fontSize=12;fontFamily=Helvetica;html=1;whiteSpace=wrap;" vertex="1" parent="1">
          <mxGeometry x="210" y="70" width="260" height="140" as="geometry" />
        </mxCell>
        <mxCell id="a0vF65a34ZP9SOjktLQK-2" value="&lt;p style=&quot;margin:0px;margin-top:4px;text-align:center;&quot;&gt;&lt;b&gt;AbstractHandler&lt;/b&gt;&lt;br&gt;&lt;/p&gt;&lt;hr size=&quot;1&quot;&gt;&lt;p style=&quot;margin:0px;margin-left:4px;&quot;&gt;# nextHandler: Handler&lt;/p&gt;&lt;hr size=&quot;1&quot;&gt;&lt;p style=&quot;margin:0px;margin-left:4px;&quot;&gt;+ setNextHandler(Handler nextHandler): void&lt;/p&gt;&lt;p style=&quot;margin:0px;margin-left:4px;&quot;&gt;+&amp;nbsp;handleRequest(int amount): void&lt;/p&gt;" style="verticalAlign=top;align=left;overflow=fill;fontSize=12;fontFamily=Helvetica;html=1;whiteSpace=wrap;" vertex="1" parent="1">
          <mxGeometry x="210" y="250" width="260" height="90" as="geometry" />
        </mxCell>
        <mxCell id="a0vF65a34ZP9SOjktLQK-3" value="&lt;p style=&quot;margin:0px;margin-top:4px;text-align:center;&quot;&gt;&lt;b&gt;Supervisor&lt;/b&gt;&lt;br&gt;&lt;/p&gt;&lt;hr size=&quot;1&quot;&gt;&lt;p style=&quot;margin:0px;margin-left:4px;&quot;&gt;&amp;nbsp;&lt;/p&gt;&lt;hr size=&quot;1&quot;&gt;&lt;p style=&quot;margin:0px;margin-left:4px;&quot;&gt;&lt;span style=&quot;background-color: initial;&quot;&gt;+&amp;nbsp;handleRequest(int amount): void&lt;/span&gt;&lt;br&gt;&lt;/p&gt;" style="verticalAlign=top;align=left;overflow=fill;fontSize=12;fontFamily=Helvetica;html=1;whiteSpace=wrap;" vertex="1" parent="1">
          <mxGeometry x="370" y="610" width="200" height="80" as="geometry" />
        </mxCell>
        <mxCell id="a0vF65a34ZP9SOjktLQK-4" value="&lt;p style=&quot;margin:0px;margin-top:4px;text-align:center;&quot;&gt;&lt;b&gt;Director&lt;/b&gt;&lt;br&gt;&lt;/p&gt;&lt;hr size=&quot;1&quot;&gt;&lt;p style=&quot;margin:0px;margin-left:4px;&quot;&gt;&amp;nbsp;&lt;/p&gt;&lt;hr size=&quot;1&quot;&gt;&lt;p style=&quot;margin:0px;margin-left:4px;&quot;&gt;&lt;span style=&quot;background-color: initial;&quot;&gt;+&amp;nbsp;handleRequest(int amount): void&lt;/span&gt;&lt;br&gt;&lt;/p&gt;" style="verticalAlign=top;align=left;overflow=fill;fontSize=12;fontFamily=Helvetica;html=1;whiteSpace=wrap;" vertex="1" parent="1">
          <mxGeometry x="100" y="400" width="200" height="80" as="geometry" />
        </mxCell>
        <mxCell id="a0vF65a34ZP9SOjktLQK-5" value="&lt;p style=&quot;margin:0px;margin-top:4px;text-align:center;&quot;&gt;&lt;b&gt;Manager&lt;/b&gt;&lt;br&gt;&lt;/p&gt;&lt;hr size=&quot;1&quot;&gt;&lt;p style=&quot;margin:0px;margin-left:4px;&quot;&gt;&amp;nbsp;&lt;/p&gt;&lt;hr size=&quot;1&quot;&gt;&lt;p style=&quot;margin:0px;margin-left:4px;&quot;&gt;&lt;span style=&quot;background-color: initial;&quot;&gt;+&amp;nbsp;handleRequest(int amount): void&lt;/span&gt;&lt;br&gt;&lt;/p&gt;" style="verticalAlign=top;align=left;overflow=fill;fontSize=12;fontFamily=Helvetica;html=1;whiteSpace=wrap;" vertex="1" parent="1">
          <mxGeometry x="240" y="505" width="200" height="80" as="geometry" />
        </mxCell>
        <mxCell id="a0vF65a34ZP9SOjktLQK-6" value="" style="endArrow=block;dashed=1;endFill=0;endSize=12;html=1;rounded=0;exitX=0.5;exitY=0;exitDx=0;exitDy=0;entryX=0.5;entryY=1;entryDx=0;entryDy=0;" edge="1" parent="1" source="a0vF65a34ZP9SOjktLQK-2" target="a0vF65a34ZP9SOjktLQK-1">
          <mxGeometry width="160" relative="1" as="geometry">
            <mxPoint x="320" y="380" as="sourcePoint" />
            <mxPoint x="480" y="380" as="targetPoint" />
          </mxGeometry>
        </mxCell>
        <mxCell id="a0vF65a34ZP9SOjktLQK-7" value="Extends" style="endArrow=block;endSize=16;endFill=0;html=1;rounded=0;exitX=0.5;exitY=0;exitDx=0;exitDy=0;entryX=0.5;entryY=1;entryDx=0;entryDy=0;" edge="1" parent="1" source="a0vF65a34ZP9SOjktLQK-4" target="a0vF65a34ZP9SOjktLQK-2">
          <mxGeometry width="160" relative="1" as="geometry">
            <mxPoint x="230" y="380" as="sourcePoint" />
            <mxPoint x="390" y="380" as="targetPoint" />
            <Array as="points">
              <mxPoint x="200" y="380" />
              <mxPoint x="340" y="380" />
            </Array>
          </mxGeometry>
        </mxCell>
        <mxCell id="a0vF65a34ZP9SOjktLQK-8" value="Extends" style="endArrow=block;endSize=16;endFill=0;html=1;rounded=0;exitX=0.5;exitY=0;exitDx=0;exitDy=0;entryX=0.5;entryY=1;entryDx=0;entryDy=0;" edge="1" parent="1" source="a0vF65a34ZP9SOjktLQK-5" target="a0vF65a34ZP9SOjktLQK-2">
          <mxGeometry width="160" relative="1" as="geometry">
            <mxPoint x="350" y="490" as="sourcePoint" />
            <mxPoint x="370" y="410" as="targetPoint" />
            <Array as="points">
              <mxPoint x="340" y="380" />
            </Array>
          </mxGeometry>
        </mxCell>
        <mxCell id="a0vF65a34ZP9SOjktLQK-10" value="Extends" style="endArrow=block;endSize=16;endFill=0;html=1;rounded=0;exitX=0.5;exitY=0;exitDx=0;exitDy=0;entryX=0.5;entryY=1;entryDx=0;entryDy=0;" edge="1" parent="1" source="a0vF65a34ZP9SOjktLQK-3" target="a0vF65a34ZP9SOjktLQK-2">
          <mxGeometry width="160" relative="1" as="geometry">
            <mxPoint x="500" y="575" as="sourcePoint" />
            <mxPoint x="400" y="390" as="targetPoint" />
            <Array as="points">
              <mxPoint x="470" y="380" />
              <mxPoint x="340" y="380" />
            </Array>
          </mxGeometry>
        </mxCell>
      </root>
    </mxGraphModel>
  </diagram>
</mxfile>
